<?xml version="1.0" encoding="utf-8"?>

<!-- License Agreement at http://iconmonstr.com/license/ -->

<!DOCTYPE svg PUBLIC "-//W3C//DTD SVG 1.1//EN" "http://www.w3.org/Graphics/SVG/1.1/DTD/svg11.dtd">
<svg version="1.1" xmlns="http://www.w3.org/2000/svg" xmlns:xlink="http://www.w3.org/1999/xlink" x="0px" y="0px"
	 width="512px" height="512px" viewBox="0 0 512 512" enable-background="new 0 0 512 512" xml:space="preserve">
<path id="note-3-icon" d="M435.667,146H76.333V50h359.334V146z M432.644,359.225c-12.783,45.332-53.783,87.998-101.57,101.49
	c19.828-20.049,26.828-53.049,23.02-78.248C389.235,390.666,412,380.055,432.644,359.225z M435.667,176v116.799
	c0,58.701-67.098,64.293-118.75,51.512c0,0,26.15,117.689-57.251,117.689H76.333V176H435.667z M243.079,355.133H140.195v30h102.884
	V355.133z M371.788,289.715H140.195v30h231.593V289.715z M371.788,224.382H140.195v30h231.593V224.382z"/>
</svg>
