<?xml version="1.0" encoding="utf-8"?>

<!-- License Agreement at http://iconmonstr.com/license/ -->

<!DOCTYPE svg PUBLIC "-//W3C//DTD SVG 1.1//EN" "http://www.w3.org/Graphics/SVG/1.1/DTD/svg11.dtd">
<svg version="1.1" xmlns="http://www.w3.org/2000/svg" xmlns:xlink="http://www.w3.org/1999/xlink" x="0px" y="0px"
	 width="512px" height="512px" viewBox="0 0 512 512" enable-background="new 0 0 512 512" xml:space="preserve">
<path id="note-10-icon" d="M210.513,217.778h142.51v30h-142.51V217.778z M353.022,152.445h-142.51v30h142.51V152.445z
	 M210.513,313.195h142.543v-30H210.513V313.195z M435.667,50v261.527C435.667,372.93,351.514,462,283.349,462H76.333V50H435.667z
	 M141.769,341.216c0-10.897-8.834-19.732-19.731-19.732s-19.732,8.835-19.732,19.732s8.835,19.731,19.732,19.731
	S141.769,352.113,141.769,341.216z M141.769,173.178c0-10.897-8.834-19.732-19.731-19.732s-19.732,8.835-19.732,19.732
	s8.835,19.731,19.732,19.731S141.769,184.075,141.769,173.178z M395.667,90h-228.14v332c0,0,111.159,0,115.212,0
	c58.859,0,35-76.092,35-76.092s77.928,25.287,77.928-37.834C395.667,302.443,395.667,90,395.667,90z"/>
</svg>
