<?xml version="1.0" encoding="utf-8"?>

<!-- License Agreement at http://iconmonstr.com/license/ -->

<!DOCTYPE svg PUBLIC "-//W3C//DTD SVG 1.1//EN" "http://www.w3.org/Graphics/SVG/1.1/DTD/svg11.dtd">
<svg version="1.1" xmlns="http://www.w3.org/2000/svg" xmlns:xlink="http://www.w3.org/1999/xlink" x="0px" y="0px"
	 width="512px" height="512px" viewBox="0 0 512 512" enable-background="new 0 0 512 512" xml:space="preserve">
<path id="note-4-icon" d="M270,367.186H158.988v-30H270V367.186z M352.979,301.77h-193.99v-30h193.99V301.77z M352.979,236.436
	h-193.99v-29.999h193.99V236.436z M116.333,422V146.529h279.334c0,0,0,129.795,0,161.545c0,63.121-77.928,37.834-77.928,37.834
	s23.859,76.092-35,76.092C250.677,422,234.675,422,116.333,422z M435.667,311.527V50H76.333v412h207.016
	C351.514,462,435.667,372.93,435.667,311.527z"/>
</svg>
